<?xml version="1.0" encoding="UTF-8"?>
<svg id="Layer_1" xmlns="http://www.w3.org/2000/svg" viewBox="0 0 129.78 51.36">
  <defs>
    <style>
      .cls-1 {
        fill: #565656;
      }

      .cls-1, .cls-2 {
        stroke: #fff;
        stroke-miterlimit: 10;
        stroke-width: .2px;
      }

      .cls-2 {
        fill: #f2b442;
      }
    </style>
  </defs>
  <circle class="cls-2" cx="23.7" cy="27.43" r="23.6"/>
  <path class="cls-1" d="M11.79,24.98c.01-.09.06-.44.15-1.02-.6.36-.99.68-1.45.84-.38.13-.96.24-1.21.04-.31-.24-.51-.8-.5-1.22.03-1.29,1.28-2.43,2.72-2.53,1.07-.07,2.25-.32,2.62,1.08,1.75-2.97,4.11-5.12,6.8-7-.01-.16-.04-.44-.06-.72.29,0,.58,0,.87.03.5.03.99.06,1.25.08.45.5.82.92,1.2,1.34.12-.11.24-.22.37-.33-.26-.28-.53-.56-.85-.89,1.93-1.23-.85-1.68-.18-2.78-.6.1-.95.16-1.36.23-.09-.19-.12-.43-.26-.51-.43-.28-.87-.63-1.34-.68-.2-.02-.47.63-.71.98-.26.39-.49.8-.8,1.15-.38.43-.84.8-1.1,1.04-.68-.51-1.3-.94-1.88-1.42-.62-.5-.78-1.01.06-1.48.45-.25.88-.59,1.36-.75.46-.15.99-.12,1.51-.03,2.4-1.85,2.77-1.97,3.96-1.05-.38.29-.74.57-1.12.86,1.2,1.08,2.04-.21,3.11-.36-.56-1.52-1.63-2.17-3.09-2.22-1.05-.03-1.88.32-2.01,1.6-.14,0-.27-.01-.41-.02-.11-.46-.22-.92-.37-1.49-.19,0-.61.03-1.22.06.86,1.27-.27,1.3-.85,1.54-.41.16-.96,0-1.44-.03,0-.14,0-.29,0-.43.51-.24,1.02-.48,1.35-.64-.68-.25-1.38-.61-2.13-.74-.63-.11-1.32.04-1.98.07-.02.14-.05.27-.07.41.59.41,1.17.83,1.74,1.23-.36.29-2.48-.1-4.69-.91,7.75-6.61,21.7-6.41,29.73,1.56-.64.46-1.26.92-2.15,1.56.66.43,1.17.74,1.65,1.1.19.14.45.42.42.58-.04.19-.4.48-.56.44-1.44-.3-1.89,1.36-3.1,1.55-.07.01,0,.9,0,1.48-.22.04-.49.15-.73.11-.73-.14-1.46-.16-1.61.72-.07.4.22,1.12.54,1.26.7.3,1.57.52,2.1-.4.5-.85,1.09-1.75,2.16-1.6.73.1,1.41.69,2.06,1.13.1.07-.05.5-.1.92.24-.15.59-.26.64-.45.06-.25-.1-.57-.19-.85-.02-.06-.15-.08-.18-.14-.26-.42-.51-.84-.76-1.27.54.19,1.23.24,1.58.61.48.51.7,1.26,1.12,2.07.36-.57.61-.96.9-1.4.59.89,1.16,1.63,1.6,2.45.17.32.05.81.05,1.22-.38-.06-.81-.03-1.11-.21-.75-.45-1.27-.73-2.22-.06-.45.32-2.27-.26-2.44-.77-.54-1.59-1.6-.84-2.44-.84-.77,0-1.55.23-2.32.41-.79.18-1.47.38-1.61,1.45-.07.53-.78.99-1.24,1.45-.51.51-1.56.81-.63,1.83.07.08.03.32-.03.45-1.09,2.12.41,3.4,1.74,4.41.62.47,1.99.19,2.93-.07,1.64-.44,3.08.42,3.32,2.06.11.75.5,1.5.9,2.17.45.76.54,1.39.13,2.22-.23.46,0,1.16.07,1.75.04.3.18.59.27.89.22.69.35,1.43.67,2.07.6,1.2.36,3.08-.58,4.05-3.83,3.96-8.54,6.34-13.95,6.9-6.25.65-12.02-.9-17.06-4.84C4.19,42.27,1.2,36.98.35,30.62c-.56-4.18-.21-8.4,1.57-12.35.04-.09.14-.17.44-.52.54,1.3,1.06,2.42,1.46,3.58.29.82.36,1.74,1.61,2.26-.41-1.2-.72-2.11-1.09-3.19.41.07.6.06.62.11.5,1.26.9,2.57,1.51,3.77.28.55.97,1.26,1.48,1.26,1.18.01,2.1.58,3.03,1.08,1.12.59,1.87,1.7,3.29,1.98.66.13.53,1.12-.04,1.69-1.17,1.17-1.21,2.34-.15,3.56.84.97,1.34,2.21,2.65,2.79.33.15.53.96.52,1.46-.07,2.05.27,4,.81,5.98.32,1.16.16,2.44.99,3.47.65.81,1.31,1.61,2.45,1.22-.45-1.49-.88-2.92-1.36-4.51,2.07-.14,2.81-1.75,3.76-3.09.26-.36.21-.97.21-1.46,0-.69.16-1.2.97-1.2,1.2,0,1.47-.81,1.69-1.78.22-.94.54-1.86.94-2.74.36-.79-.53-2.03-1.64-2.17-.55-.07-1.12-.07-1.66-.2-.84-.2-1.62-.52-1.58-1.62,0-.08-.02-.19-.07-.22-1.17-.75-2.32-1.54-3.54-2.21-.54-.29-1.25-.25-1.84-.48-.68-.26-1.3-.49-1.79.25-.52.78-1.32.83-2.01.51-.35-.16-.43-.87-.68-1.3-.28-.46-.62-.89-1.11-1.59Z"/>
  <path class="cls-1" d="M58.07,9.85c4.25.3,8.46-.48,12.62.69,5.06,1.42,6.45,5.88,6.07,9.99-.18,1.97-.76,3.85-2.21,5.37-1.73,1.81-3.94,2.59-6.28,2.73-3.37.2-6.76.05-10.2.05V9.85ZM64.14,19.27c0,.6,0,1.19,0,1.79q0,2.66,2.69,2.46c1.87-.14,3.39-1.54,3.63-3.33.31-2.38-.51-4.09-2.44-4.71-.92-.3-1.94-.3-2.92-.41-.74-.09-.98.29-.96.99.03,1.07,0,2.15,0,3.22Z"/>
  <path class="cls-1" d="M93.55,16.83v4.46c-1.2,0-2.38,0-3.56,0-1.4,0-2.79.03-4.19-.01-.85-.03-1.32.13-1.33,1.16-.02,1.1.56,1.11,1.35,1.1,2.67-.02,5.35.02,8.02-.02.85-.01,1.25.19,1.2,1.13-.07,1.3-.02,2.61-.02,3.99h-16.56V9.98h15.78v5.08c-2.88,0-5.7-.02-8.52.02-.4,0-1.01.19-1.17.49-.39.72.05,1.25.95,1.26,2.63.01,5.26,0,8.03,0Z"/>
  <path class="cls-1" d="M114.33,28.66h-6.25c.97-2.84,1.92-5.63,2.87-8.41,1.06-3.09,2.13-6.18,3.15-9.29.25-.77.6-1.13,1.5-1.1,2.27.08,4.55.04,6.82.01.59,0,.92.14,1.13.75,1.89,5.55,3.82,11.09,5.73,16.63.15.44.24.9.38,1.44-1.92,0-3.75-.02-5.58.01-.73.01-.82-.48-.92-.98-.26-1.26-.91-1.84-2.31-1.7-1.42.15-2.87.11-4.3,0-1.05-.08-1.54.34-1.76,1.29-.1.45-.29.88-.45,1.33ZM119.08,16.11c-.12,0-.25,0-.37,0-.61,1.74-1.22,3.48-1.88,5.39h4.13c-.66-1.89-1.27-3.64-1.88-5.38Z"/>
  <path class="cls-1" d="M113.46,50.71c-.3-1.58-.57-3.01-.84-4.43-.1,0-.2-.02-.3-.03-.28,1.45-.56,2.9-.86,4.46-2.07,0-4.14.02-6.21-.03-.25,0-.67-.32-.73-.55-1.07-4.6-2.09-9.21-3.12-13.83-.02-.07.03-.15.07-.29h4.98c.5,3.12.99,6.17,1.48,9.22.13,0,.26,0,.39,0,.59-3.07,1.17-6.13,1.76-9.24h4.73c.6,3.11,1.19,6.19,1.79,9.26.13,0,.25,0,.38,0,.5-3.05,1-6.11,1.51-9.24h5.08c-.6,2.68-1.18,5.32-1.77,7.96-.45,2-.87,4-1.38,5.98-.08.3-.52.72-.81.73-2.03.06-4.06.03-6.15.03Z"/>
  <path class="cls-1" d="M100.02,36.02v3.92c-1.87,0-3.73,0-5.59,0-.36,0-.75-.09-1.07.03-.36.13-.65.46-.97.7.31.26.61.74.93.76,1.59.08,3.19.04,4.79.04.43,0,.86,0,1.45,0,0,1.01.08,1.92-.05,2.81-.04.27-.61.66-.94.67-1.71.07-3.43.05-5.15.03-.63,0-1.07.05-1.06.88.01.79.4.91,1.06.91,2.31-.02,4.63,0,7.04,0v3.89h-12.92v-14.61h12.48Z"/>
  <path class="cls-1" d="M62.89,36.08c.16-.07.2-.09.24-.09,1.47,0,3.26-.52,4.33.13.98.6,1.21,2.45,1.7,3.77.6,1.62,1.13,3.27,1.7,4.91.13.36.33.69.65,1.32.59-1.66,1.1-3.04,1.58-4.42.56-1.6,1.15-3.19,1.63-4.81.22-.76.59-.98,1.34-.95,1.27.05,2.54.01,3.98.01-.87,2.55-1.69,4.96-2.52,7.37-.74,2.16-1.53,4.3-2.24,6.47-.21.65-.47.97-1.23.95-2.03-.06-4.06-.02-6.11-.02-1.7-4.93-3.38-9.79-5.05-14.64Z"/>
  <path class="cls-1" d="M97.63,23.54c2.21.88,3.66.48,4.13-1.15.21-.71.29-1.48.3-2.22.03-2.95.01-5.9.01-8.85,0-.43,0-.86,0-1.35h5.87c.02.39.05.8.05,1.22,0,3.55,0,7.1,0,10.65,0,3.59-1.99,6.18-5.53,7.03-2.26.55-4.55.55-6.87-.27.69-1.71,1.37-3.38,2.04-5.04Z"/>
  <path class="cls-1" d="M85.6,50.65h-4.51v-14.63h4.51v14.63Z"/>
  <polygon class="cls-2" points="123.56 5.68 120.26 7.07 113.32 3.53 118.44 .13 123.56 5.68"/>
  <polygon class="cls-2" points="81.64 5.68 84.94 7.07 91.88 3.53 86.76 .13 81.64 5.68"/>
</svg>